<svg xmlns="http://www.w3.org/2000/svg" viewBox="0 0 256 256">
  <rect width="256" height="256" fill="none"/>
  <path d="M232,84.18a16,16,0,0,0-15.65-1.3l-45.7,19.59L141.4,43a16,16,0,0,0-26.8,0L85.34,102.47,39.64,82.88a16,16,0,0,0-21.21,19.33l24.84,86.95A16,16,0,0,0,58.37,200H197.63a16,16,0,0,0,15.1-10.84l24.84-86.95A16,16,0,0,0,232,84.18ZM197.63,184H58.37L34.19,99.39l49.52,21.22a16,16,0,0,0,20.59-8l33.7-68.61,33.7,68.61a16,16,0,0,0,20.59,8l49.52-21.22Z" fill="#494fdf"/>
  <path d="M224,216H32a8,8,0,0,0,0,16H224a8,8,0,0,0,0-16Z" fill="#494fdf"/>
</svg>
